#!OML:ASF C:\Vicon Data\Big\jianyuan-12\jianyuan\Session 1\Capture.male.ASF
:FULLY-SPECIFIED
:DEGREES
98
root -9.455935 16.869714 -16.709985 5.463758 -18.867652 4.829609
lowerback -8.837090 0.344563 -2.264004 
upperback 2.721727 0.793918 -0.780019 
thorax 7.822577 0.300538 0.573885 
lowerneck -1.328863 -8.518869 -5.223224 
upperneck 6.686789 -11.789037 8.977137 
head 3.051477 -5.704464 3.107423 
rclavicle 0.000000 0.000000 
rhumerus -28.733411 -23.781518 -82.793861 
rradius 38.655996 
rwrist 31.713610 
rhand -22.466748 -3.978461 
rfingers 0.000000 
rthumb 3.958081 -33.921431 
lclavicle 0.000000 0.000000 
lhumerus -50.364189 39.685504 62.665186 
lradius 26.830892 
lwrist -57.385033 
lhand -7.719655 1.774055 
lfingers 0.000000 
lthumb 18.178572 30.944559 
rfemur 4.300376 3.224322 23.635928 
rtibia 8.514246 
rfoot -23.044538 -1.170091 
rtoes -15.511836 
lfemur -34.114805 -5.602474 -18.671117 
ltibia 21.124906 
lfoot -15.853629 4.273527 
ltoes -16.467031 
99
root -9.479003 16.867791 -16.623695 5.551955 -19.094205 4.756335
lowerback -8.884453 0.371997 -2.236086 
upperback 2.702019 0.825709 -0.749219 
thorax 7.827821 0.316467 0.595963 
lowerneck -1.474800 -8.494067 -5.218544 
upperneck 6.712084 -11.730491 8.646983 
head 3.275418 -5.693024 3.214172 
rclavicle 0.000000 0.000000 
rhumerus -28.631238 -23.756023 -82.813053 
rradius 38.676689 
rwrist 31.973094 
rhand -22.593910 -3.979668 
rfingers 0.000000 
rthumb 3.835247 -33.924870 
lclavicle 0.000000 0.000000 
lhumerus -50.647138 39.896663 62.313737 
lradius 26.692129 
lwrist -58.006414 
lhand -7.698119 1.878089 
lfingers 0.000000 
lthumb 18.199288 31.046707 
rfemur 5.163963 3.305666 23.668002 
rtibia 7.269866 
rfoot -22.497848 -1.274785 
rtoes -15.488813 
lfemur -34.204327 -5.896299 -18.424482 
ltibia 20.122936 
lfoot -15.888532 4.032030 
ltoes -16.688612 
100
root -9.504249 16.862439 -16.533243 5.494983 -19.210778 4.839017
lowerback -8.904903 0.350820 -2.379245 
upperback 2.736907 0.815514 -0.740976 
thorax 7.875798 0.303601 0.683864 
lowerneck -1.387909 -8.443557 -5.359660 
upperneck 6.485524 -11.651882 8.719635 
head 3.226787 -5.664528 3.310346 
rclavicle 0.000000 0.000000 
rhumerus -28.555634 -23.664837 -82.833532 
rradius 38.712924 
rwrist 32.299704 
rhand -22.806041 -4.044343 
rfingers 0.000000 
rthumb 3.630387 -33.993157 
lclavicle 0.000000 0.000000 
lhumerus -50.918146 40.230184 61.939367 
lradius 26.563248 
lwrist -58.330360 
lhand -7.648750 1.831063 
lfingers 0.000000 
lthumb 18.246765 30.995253 
rfemur 6.252039 3.257307 23.573870 
rtibia 5.896616 
rfoot -21.848573 -1.378020 
rtoes -15.530652 
lfemur -34.198736 -6.199159 -18.405972 
ltibia 19.248290 
lfoot -15.725524 3.637239 
ltoes -17.787763 
101
root -9.526766 16.858032 -16.445038 5.577209 -19.417642 4.741170
lowerback -8.952529 0.407994 -2.251582 
upperback 2.729202 0.880759 -0.778183 
thorax 7.895345 0.342516 0.583397 
lowerneck -1.404547 -8.411817 -5.333772 
upperneck 6.355625 -11.602413 8.731187 
head 3.272746 -5.646232 3.404309 
rclavicle 0.000000 0.000000 
rhumerus -28.462844 -23.634581 -82.961655 
rradius 38.836763 
rwrist 31.740084 
rhand -22.718553 -3.842152 
rfingers 0.000000 
rthumb 3.714865 -33.789505 
lclavicle 0.000000 0.000000 
lhumerus -51.120622 40.452034 61.463304 
lradius 26.390696 
lwrist -58.766871 
lhand -7.703707 1.883260 
lfingers 0.000000 
lthumb 18.193887 31.052356 
rfemur 7.446273 3.319064 23.638966 
rtibia 4.094838 
rfoot -20.919707 -1.470924 
rtoes -15.047159 
lfemur -34.337089 -6.531195 -18.138742 
ltibia 18.527729 
lfoot -15.732353 3.536800 
ltoes -18.780132 
102
root -9.552351 16.851991 -16.353577 5.625798 -19.614569 4.742869
lowerback -9.004823 0.458512 -2.255004 
upperback 2.695370 0.953857 -0.832502 
thorax 7.888333 0.379809 0.539814 
lowerneck -1.349043 -8.403748 -5.247721 
upperneck 6.290528 -11.591001 8.721625 
head 3.231480 -5.641237 3.389080 
rclavicle 0.000000 0.000000 
rhumerus -28.524842 -23.711054 -83.061174 
rradius 39.070161 
rwrist 31.371673 
rhand -22.578757 -4.021339 
rfingers 0.000000 
rthumb 3.849900 -33.966292 
lclavicle 0.000000 0.000000 
lhumerus -51.354160 40.632660 60.990045 
lradius 26.268829 
lwrist -59.102344 
lhand -7.568354 1.874294 
lfingers 0.000000 
lthumb 18.324169 31.031253 
rfemur 9.246410 3.362309 23.598313 
rtibia 1.152886 
rfoot -19.611706 -1.752025 
rtoes -14.756160 
lfemur -34.494461 -7.002803 -17.908602 
ltibia 18.005691 
lfoot -15.955240 3.604838 
ltoes -19.221427 
103
root -9.576018 16.844265 -16.263687 5.629805 -19.679312 4.628352
lowerback -8.961739 0.441749 -2.164221 
upperback 2.706459 0.916167 -0.793152 
thorax 7.876664 0.364758 0.524006 
lowerneck -1.299342 -8.372642 -5.315293 
upperneck 6.180490 -11.540649 8.701302 
head 3.183426 -5.622258 3.400225 
rclavicle 0.000000 0.000000 
rhumerus -28.460045 -23.536371 -83.133184 
rradius 39.127196 
rwrist 31.434649 
rhand -22.683995 -4.155447 
rfingers 0.000000 
rthumb 3.748261 -34.102189 
lclavicle 0.000000 0.000000 
lhumerus -51.628216 40.957846 60.561118 
lradius 26.155367 
lwrist -59.301807 
lhand -7.504342 1.865805 
lfingers 0.000000 
lthumb 18.385711 31.016891 
rfemur 10.227034 3.277465 23.705116 
rtibia 0.000000 
rfoot -19.221917 -1.816888 
rtoes -14.927766 
lfemur -34.569084 -7.327257 -17.691432 
ltibia 17.561432 
lfoot -16.058971 3.596067 
ltoes -20.402395 
104
root -9.600405 16.836686 -16.173360 5.664882 -19.870072 4.679533
lowerback -9.023553 0.452786 -2.244934 
upperback 2.706705 0.944832 -0.820537 
thorax 7.911520 0.375201 0.545621 
lowerneck -1.355826 -8.346874 -5.343900 
upperneck 6.152049 -11.503121 8.712905 
head 3.184208 -5.603510 3.409393 
rclavicle 0.000000 0.000000 
rhumerus -28.418137 -23.558975 -83.146741 
rradius 39.056553 
rwrist 31.711374 
rhand -22.782501 -4.049505 
rfingers 0.000000 
rthumb 3.653162 -33.997961 
lclavicle 0.000000 0.000000 
lhumerus -51.866295 41.300098 60.060448 
lradius 25.992217 
lwrist -59.853229 
lhand -7.556508 2.130831 
lfingers 0.000000 
lthumb 18.335504 31.286656 
rfemur 10.510542 3.310453 23.617588 
rtibia 0.000000 
rfoot -19.280927 -1.781132 
rtoes -15.106423 
lfemur -34.678207 -7.625570 -17.625158 
ltibia 17.206557 
lfoot -16.249378 3.807091 
ltoes -20.769654 
105
root -9.623836 16.825978 -16.078849 5.654376 -19.952852 4.701262
lowerback -9.033776 0.462308 -2.222482 
upperback 2.698498 0.960464 -0.888682 
thorax 7.909780 0.386003 0.463598 
lowerneck -1.386545 -8.315081 -5.332389 
upperneck 6.165136 -11.464960 8.772981 
head 3.195426 -5.581685 3.428923 
rclavicle 0.000000 0.000000 
rhumerus -28.477769 -23.655731 -83.241470 
rradius 39.184504 
rwrist 31.435478 
rhand -22.733736 -3.967673 
rfingers 0.000000 
rthumb 3.700237 -33.915308 
lclavicle 0.000000 0.000000 
lhumerus -52.109421 41.591952 59.505048 
lradius 25.868364 
lwrist -60.134779 
lhand -7.531287 1.938906 
lfingers 0.000000 
lthumb 18.359814 31.092424 
rfemur 10.886771 3.234561 23.580633 
rtibia 0.000000 
rfoot -19.165758 -1.788171 
rtoes -15.185555 
lfemur -34.676656 -7.704641 -17.724256 
ltibia 16.905776 
lfoot -16.322997 3.822074 
ltoes -20.813439 
